STARTFONT 2.3
FONT -FontForge-Righteous-Book-R-Normal--9-90-72-72-P-48-ISO10646-1
SIZE 9 72 72  2
FONTBOUNDINGBOX 12 11 -2 -2
COMMENT "Generated by fontforge, http://fontforge.sourceforge.net"
COMMENT "Copyright (c) 2011 by Brian J. Bonislawsky DBA Astigmatic (AOETI) (astigma@astigmatic.com), with ReservedFont Name "Righteous""
STARTPROPERTIES 40
FOUNDRY "FontForge"
FAMILY_NAME "Righteous"
WEIGHT_NAME "Book"
SLANT "R"
SETWIDTH_NAME "Normal"
ADD_STYLE_NAME ""
PIXEL_SIZE 9
POINT_SIZE 90
RESOLUTION_X 72
RESOLUTION_Y 72
SPACING "P"
AVERAGE_WIDTH 48
CHARSET_REGISTRY "ISO10646"
CHARSET_ENCODING "1"
FONTNAME_REGISTRY ""
CHARSET_COLLECTIONS "ISO8859-2 ISO8859-9 ISO8859-4 ISO10646-1"
BITS_PER_PIXEL 2
FONT_NAME "Righteous-Regular"
FACE_NAME "Righteous"
COPYRIGHT "Copyright (c) 2011 by Brian J. Bonislawsky DBA Astigmatic (AOETI) (astigma@astigmatic.com), with ReservedFont Name "Righteous""
FONT_VERSION "1.000"
FONT_ASCENT 7
FONT_DESCENT 2
UNDERLINE_POSITION -1
UNDERLINE_THICKNESS 1
X_HEIGHT 4
CAP_HEIGHT 6
RAW_ASCENT 799
RAW_DESCENT 200
NORM_SPACE 3
RELATIVE_WEIGHT 40
RELATIVE_SETWIDTH 50
SUPERSCRIPT_X 0
SUPERSCRIPT_Y 4
SUPERSCRIPT_SIZE 5
SUBSCRIPT_X 0
SUBSCRIPT_Y 1
SUBSCRIPT_SIZE 5
AVG_LOWERCASE_WIDTH 47
AVG_UPPERCASE_WIDTH 56
ENDPROPERTIES
CHARS 372
STARTCHAR space
ENCODING 32
SWIDTH 279 0
DWIDTH 3 0
BBX 1 1 0 0
BITMAP
00
ENDCHAR
STARTCHAR exclam
ENCODING 33
SWIDTH 274 0
DWIDTH 2 0
BBX 2 8 0 -1
BITMAP
10
70
70
70
60
10
70
10
ENDCHAR
STARTCHAR quotedbl
ENCODING 34
SWIDTH 409 0
DWIDTH 4 0
BBX 3 3 0 4
BITMAP
14
6C
58
ENDCHAR
STARTCHAR numbersign
ENCODING 35
SWIDTH 561 0
DWIDTH 5 0
BBX 5 4 0 1
BITMAP
2B40
3B40
7F00
6900
ENDCHAR
STARTCHAR dollar
ENCODING 36
SWIDTH 458 0
DWIDTH 4 0
BBX 4 6 0 0
BITMAP
18
7D
69
6A
69
18
ENDCHAR
STARTCHAR percent
ENCODING 37
SWIDTH 685 0
DWIDTH 6 0
BBX 6 7 0 0
BITMAP
1040
A880
9A40
6A00
0AE0
1A60
21E0
ENDCHAR
STARTCHAR ampersand
ENCODING 38
SWIDTH 485 0
DWIDTH 4 0
BBX 4 7 0 0
BITMAP
04
1D
65
78
64
7A
0D
ENDCHAR
STARTCHAR quotesingle
ENCODING 39
SWIDTH 238 0
DWIDTH 2 0
BBX 2 3 0 4
BITMAP
10
60
50
ENDCHAR
STARTCHAR parenleft
ENCODING 40
SWIDTH 351 0
DWIDTH 3 0
BBX 3 9 0 -1
BITMAP
04
28
70
A0
A0
A0
70
34
28
ENDCHAR
STARTCHAR parenright
ENCODING 41
SWIDTH 351 0
DWIDTH 3 0
BBX 3 8 0 -1
BITMAP
70
34
28
18
28
28
34
A0
ENDCHAR
STARTCHAR asterisk
ENCODING 42
SWIDTH 589 0
DWIDTH 5 0
BBX 5 5 0 3
BITMAP
0400
1D40
7F80
2F00
3740
ENDCHAR
STARTCHAR plus
ENCODING 43
SWIDTH 485 0
DWIDTH 4 0
BBX 4 4 0 1
BITMAP
18
BE
6D
14
ENDCHAR
STARTCHAR comma
ENCODING 44
SWIDTH 264 0
DWIDTH 2 0
BBX 2 2 0 -1
BITMAP
70
20
ENDCHAR
STARTCHAR hyphen
ENCODING 45
SWIDTH 528 0
DWIDTH 5 0
BBX 5 2 0 2
BITMAP
6A40
5500
ENDCHAR
STARTCHAR period
ENCODING 46
SWIDTH 263 0
DWIDTH 2 0
BBX 2 2 0 -1
BITMAP
70
10
ENDCHAR
STARTCHAR slash
ENCODING 47
SWIDTH 490 0
DWIDTH 4 0
BBX 4 7 0 0
BITMAP
01
06
0D
1C
28
34
A0
ENDCHAR
STARTCHAR zero
ENCODING 48
SWIDTH 642 0
DWIDTH 6 0
BBX 6 7 0 0
BITMAP
0500
3F80
70D0
A0D0
A0D0
75C0
2F40
ENDCHAR
STARTCHAR one
ENCODING 49
SWIDTH 317 0
DWIDTH 3 0
BBX 3 7 0 0
BITMAP
50
B4
34
34
34
34
34
ENDCHAR
STARTCHAR two
ENCODING 50
SWIDTH 570 0
DWIDTH 5 0
BBX 5 7 0 0
BITMAP
1400
7F40
0280
2B40
7500
A500
BF80
ENDCHAR
STARTCHAR three
ENCODING 51
SWIDTH 586 0
DWIDTH 5 0
BBX 5 7 0 0
BITMAP
1400
BF40
0280
2B80
1680
1680
BF40
ENDCHAR
STARTCHAR four
ENCODING 52
SWIDTH 630 0
DWIDTH 6 0
BBX 6 7 0 0
BITMAP
1000
3140
7280
6280
BAC0
ABD0
0280
ENDCHAR
STARTCHAR five
ENCODING 53
SWIDTH 585 0
DWIDTH 5 0
BBX 5 7 0 0
BITMAP
1540
7F80
7000
7F40
16C0
16C0
BF40
ENDCHAR
STARTCHAR six
ENCODING 54
SWIDTH 615 0
DWIDTH 6 0
BBX 6 7 0 0
BITMAP
0500
2800
7A00
BAC0
A0D0
75C0
2F40
ENDCHAR
STARTCHAR seven
ENCODING 55
SWIDTH 516 0
DWIDTH 5 0
BBX 5 7 0 0
BITMAP
5540
BF40
0700
0A00
0D00
1C00
2800
ENDCHAR
STARTCHAR eight
ENCODING 56
SWIDTH 618 0
DWIDTH 6 0
BBX 5 7 0 0
BITMAP
0500
3B80
71C0
3F80
75C0
A0C0
3F80
ENDCHAR
STARTCHAR nine
ENCODING 57
SWIDTH 616 0
DWIDTH 6 0
BBX 5 7 0 0
BITMAP
0500
7F80
A1C0
A1C0
7FC0
0780
0A00
ENDCHAR
STARTCHAR colon
ENCODING 58
SWIDTH 276 0
DWIDTH 2 0
BBX 2 5 0 -1
BITMAP
60
60
00
70
10
ENDCHAR
STARTCHAR semicolon
ENCODING 59
SWIDTH 276 0
DWIDTH 2 0
BBX 2 5 0 -1
BITMAP
60
60
00
70
20
ENDCHAR
STARTCHAR less
ENCODING 60
SWIDTH 478 0
DWIDTH 4 0
BBX 4 5 0 1
BITMAP
0A
2D
74
2D
0A
ENDCHAR
STARTCHAR equal
ENCODING 61
SWIDTH 539 0
DWIDTH 5 0
BBX 5 4 0 1
BITMAP
6A40
6A00
7F40
1500
ENDCHAR
STARTCHAR greater
ENCODING 62
SWIDTH 478 0
DWIDTH 4 0
BBX 4 5 0 1
BITMAP
70
2C
0E
2D
70
ENDCHAR
STARTCHAR question
ENCODING 63
SWIDTH 603 0
DWIDTH 5 0
BBX 5 7 0 0
BITMAP
5500
BF80
01C0
0B80
1D00
1400
2800
ENDCHAR
STARTCHAR at
ENCODING 64
SWIDTH 629 0
DWIDTH 6 0
BBX 6 5 0 0
BITMAP
1A40
66C0
AB90
6A90
2900
ENDCHAR
STARTCHAR A
ENCODING 65
SWIDTH 673 0
DWIDTH 6 0
BBX 6 7 0 0
BITMAP
0500
2F80
70D0
60A0
7AE0
7AE0
60A0
ENDCHAR
STARTCHAR B
ENCODING 66
SWIDTH 666 0
DWIDTH 6 0
BBX 6 7 0 0
BITMAP
1500
7FD0
70A0
7AD0
75D0
75A0
7F80
ENDCHAR
STARTCHAR C
ENCODING 67
SWIDTH 640 0
DWIDTH 6 0
BBX 6 7 0 0
BITMAP
0540
2FD0
7440
A000
A000
7540
1FD0
ENDCHAR
STARTCHAR D
ENCODING 68
SWIDTH 653 0
DWIDTH 6 0
BBX 6 7 0 0
BITMAP
1400
7F80
71D0
70A0
70A0
76C0
7E40
ENDCHAR
STARTCHAR E
ENCODING 69
SWIDTH 578 0
DWIDTH 5 0
BBX 5 7 0 0
BITMAP
1540
7FC0
7000
7A00
7500
7540
7FC0
ENDCHAR
STARTCHAR F
ENCODING 70
SWIDTH 562 0
DWIDTH 5 0
BBX 5 7 0 0
BITMAP
1540
7FC0
7000
7A00
7500
7000
7000
ENDCHAR
STARTCHAR G
ENCODING 71
SWIDTH 665 0
DWIDTH 6 0
BBX 6 7 0 0
BITMAP
0500
2FD0
7440
A000
A0A0
74A0
1FD0
ENDCHAR
STARTCHAR H
ENCODING 72
SWIDTH 689 0
DWIDTH 6 0
BBX 6 7 0 0
BITMAP
1050
70A0
70A0
7AE0
75A0
70A0
70A0
ENDCHAR
STARTCHAR I
ENCODING 73
SWIDTH 270 0
DWIDTH 2 0
BBX 2 7 0 0
BITMAP
10
70
70
70
70
70
70
ENDCHAR
STARTCHAR J
ENCODING 74
SWIDTH 416 0
DWIDTH 4 0
BBX 4 7 0 0
BITMAP
04
0D
0D
0D
0D
6C
E4
ENDCHAR
STARTCHAR K
ENCODING 75
SWIDTH 625 0
DWIDTH 6 0
BBX 6 7 0 0
BITMAP
1040
71C0
7740
7E00
7B40
7280
70D0
ENDCHAR
STARTCHAR L
ENCODING 76
SWIDTH 562 0
DWIDTH 5 0
BBX 5 7 0 0
BITMAP
1000
7000
7000
7000
7000
7540
7FC0
ENDCHAR
STARTCHAR M
ENCODING 77
SWIDTH 819 0
DWIDTH 7 0
BBX 7 7 0 0
BITMAP
0450
3FF4
7358
635C
635C
635C
635C
ENDCHAR
STARTCHAR N
ENCODING 78
SWIDTH 689 0
DWIDTH 6 0
BBX 6 7 0 0
BITMAP
1050
74A0
7CA0
7AA0
77A0
72E0
70E0
ENDCHAR
STARTCHAR O
ENCODING 79
SWIDTH 777 0
DWIDTH 7 0
BBX 7 7 0 0
BITMAP
0540
2FE0
7474
A028
A028
7574
1FD0
ENDCHAR
STARTCHAR P
ENCODING 80
SWIDTH 642 0
DWIDTH 6 0
BBX 6 7 0 0
BITMAP
1500
7F80
70D0
70A0
7AD0
7A40
7000
ENDCHAR
STARTCHAR Q
ENCODING 81
SWIDTH 777 0
DWIDTH 7 0
BBX 7 9 0 -2
BITMAP
0540
2FE0
7474
A028
A028
7574
1FD0
01D0
0010
ENDCHAR
STARTCHAR R
ENCODING 82
SWIDTH 651 0
DWIDTH 6 0
BBX 6 7 0 0
BITMAP
1500
7F80
70D0
70A0
7AD0
7B80
71C0
ENDCHAR
STARTCHAR S
ENCODING 83
SWIDTH 610 0
DWIDTH 6 0
BBX 5 7 0 0
BITMAP
0540
7FC0
A000
7A40
16C0
15C0
7F80
ENDCHAR
STARTCHAR T
ENCODING 84
SWIDTH 578 0
DWIDTH 5 0
BBX 5 7 0 0
BITMAP
5540
FFC0
0D00
0D00
0D00
0D00
0D00
ENDCHAR
STARTCHAR U
ENCODING 85
SWIDTH 673 0
DWIDTH 6 0
BBX 6 7 0 0
BITMAP
1040
60A0
60A0
60A0
60A0
75D0
1F40
ENDCHAR
STARTCHAR V
ENCODING 86
SWIDTH 602 0
DWIDTH 5 0
BBX 5 7 0 0
BITMAP
4040
A1C0
7280
3740
2B00
1E00
0D00
ENDCHAR
STARTCHAR W
ENCODING 87
SWIDTH 819 0
DWIDTH 7 0
BBX 7 7 0 0
BITMAP
1104
635C
635C
635C
635C
77A8
2EF4
ENDCHAR
STARTCHAR X
ENCODING 88
SWIDTH 608 0
DWIDTH 5 0
BBX 6 7 0 0
BITMAP
5040
B2C0
3B40
1E00
1F00
3780
A1D0
ENDCHAR
STARTCHAR Y
ENCODING 89
SWIDTH 620 0
DWIDTH 6 0
BBX 6 7 0 0
BITMAP
4040
A0D0
A0D0
B5C0
2F40
0D00
0D00
ENDCHAR
STARTCHAR Z
ENCODING 90
SWIDTH 586 0
DWIDTH 5 0
BBX 5 7 0 0
BITMAP
5540
BF80
0700
0E00
1C00
3940
BFC0
ENDCHAR
STARTCHAR bracketleft
ENCODING 91
SWIDTH 380 0
DWIDTH 3 0
BBX 3 9 0 -1
BITMAP
14
7C
70
70
70
70
70
74
7C
ENDCHAR
STARTCHAR backslash
ENCODING 92
SWIDTH 490 0
DWIDTH 4 0
BBX 4 7 0 0
BITMAP
50
70
34
28
1C
0A
07
ENDCHAR
STARTCHAR bracketright
ENCODING 93
SWIDTH 380 0
DWIDTH 3 0
BBX 3 9 0 -1
BITMAP
14
BC
1C
1C
1C
1C
1C
6C
B8
ENDCHAR
STARTCHAR asciicircum
ENCODING 94
SWIDTH 293 0
DWIDTH 3 0
BBX 3 2 0 4
BITMAP
B4
54
ENDCHAR
STARTCHAR underscore
ENCODING 95
SWIDTH 598 0
DWIDTH 5 0
BBX 4 1 1 -2
BITMAP
FE
ENDCHAR
STARTCHAR grave
ENCODING 96
SWIDTH 225 0
DWIDTH 2 0
BBX 2 2 0 4
BITMAP
A0
10
ENDCHAR
STARTCHAR a
ENCODING 97
SWIDTH 607 0
DWIDTH 5 0
BBX 5 5 0 0
BITMAP
2E40
B6C0
91C0
A2C0
2F80
ENDCHAR
STARTCHAR b
ENCODING 98
SWIDTH 597 0
DWIDTH 5 0
BBX 5 7 0 0
BITMAP
5000
A000
AE00
B6C0
A0C0
75C0
2F40
ENDCHAR
STARTCHAR c
ENCODING 99
SWIDTH 521 0
DWIDTH 5 0
BBX 5 5 0 0
BITMAP
2E00
7640
9000
A100
2F40
ENDCHAR
STARTCHAR d
ENCODING 100
SWIDTH 606 0
DWIDTH 5 0
BBX 5 7 0 0
BITMAP
0080
01C0
2EC0
76C0
91C0
A6C0
2F80
ENDCHAR
STARTCHAR e
ENCODING 101
SWIDTH 524 0
DWIDTH 5 0
BBX 5 5 0 0
BITMAP
2E00
BB40
AD00
B900
2F40
ENDCHAR
STARTCHAR f
ENCODING 102
SWIDTH 395 0
DWIDTH 4 0
BBX 4 7 0 0
BITMAP
1E
34
B9
75
70
70
70
ENDCHAR
STARTCHAR g
ENCODING 103
SWIDTH 607 0
DWIDTH 5 0
BBX 5 7 0 -2
BITMAP
2E40
76C0
91C0
A6C0
2FC0
0680
0A00
ENDCHAR
STARTCHAR h
ENCODING 104
SWIDTH 562 0
DWIDTH 5 0
BBX 5 7 0 0
BITMAP
5000
A000
BA00
B740
A280
A280
A280
ENDCHAR
STARTCHAR i
ENCODING 105
SWIDTH 235 0
DWIDTH 2 0
BBX 2 7 0 0
BITMAP
60
60
50
A0
A0
A0
A0
ENDCHAR
STARTCHAR j
ENCODING 106
SWIDTH 237 0
DWIDTH 2 0
BBX 4 9 -2 -2
BITMAP
06
06
05
0A
0A
0A
0A
1D
64
ENDCHAR
STARTCHAR k
ENCODING 107
SWIDTH 539 0
DWIDTH 5 0
BBX 5 7 0 0
BITMAP
5000
A000
A240
A700
BD00
BB00
A280
ENDCHAR
STARTCHAR l
ENCODING 108
SWIDTH 235 0
DWIDTH 2 0
BBX 2 7 0 0
BITMAP
50
A0
A0
A0
A0
A0
A0
ENDCHAR
STARTCHAR m
ENCODING 109
SWIDTH 762 0
DWIDTH 7 0
BBX 7 5 0 0
BITMAP
69A0
BBB4
A324
A324
A324
ENDCHAR
STARTCHAR n
ENCODING 110
SWIDTH 562 0
DWIDTH 5 0
BBX 5 5 0 0
BITMAP
5A00
B740
A280
A280
A280
ENDCHAR
STARTCHAR o
ENCODING 111
SWIDTH 579 0
DWIDTH 5 0
BBX 5 5 0 0
BITMAP
2E00
B680
91C0
A280
2F40
ENDCHAR
STARTCHAR p
ENCODING 112
SWIDTH 608 0
DWIDTH 5 0
BBX 6 7 0 -2
BITMAP
5A40
B6C0
A0D0
B5C0
BF40
A000
6000
ENDCHAR
STARTCHAR q
ENCODING 113
SWIDTH 607 0
DWIDTH 5 0
BBX 5 7 0 -2
BITMAP
2A40
B6C0
91C0
A2C0
2FC0
01C0
0080
ENDCHAR
STARTCHAR r
ENCODING 114
SWIDTH 414 0
DWIDTH 4 0
BBX 4 5 0 0
BITMAP
59
B9
A0
A0
A0
ENDCHAR
STARTCHAR s
ENCODING 115
SWIDTH 523 0
DWIDTH 5 0
BBX 5 5 0 0
BITMAP
2A00
AA00
7E00
1B40
BF00
ENDCHAR
STARTCHAR t
ENCODING 116
SWIDTH 437 0
DWIDTH 4 0
BBX 4 7 0 0
BITMAP
20
70
BA
B9
70
34
1E
ENDCHAR
STARTCHAR u
ENCODING 117
SWIDTH 562 0
DWIDTH 5 0
BBX 5 5 0 0
BITMAP
5140
A280
A280
6680
2E80
ENDCHAR
STARTCHAR v
ENCODING 118
SWIDTH 532 0
DWIDTH 5 0
BBX 5 5 0 0
BITMAP
9140
A340
3700
2E00
1D00
ENDCHAR
STARTCHAR w
ENCODING 119
SWIDTH 756 0
DWIDTH 7 0
BBX 7 5 0 0
BITMAP
5224
A724
A724
A774
3EE0
ENDCHAR
STARTCHAR x
ENCODING 120
SWIDTH 528 0
DWIDTH 5 0
BBX 5 5 0 0
BITMAP
A240
3B00
2D00
3E00
A340
ENDCHAR
STARTCHAR y
ENCODING 121
SWIDTH 562 0
DWIDTH 5 0
BBX 5 7 0 -2
BITMAP
5140
A280
A280
6680
2F80
1B40
1900
ENDCHAR
STARTCHAR z
ENCODING 122
SWIDTH 481 0
DWIDTH 4 0
BBX 4 5 0 0
BITMAP
AA
6D
1C
39
BF
ENDCHAR
STARTCHAR braceleft
ENCODING 123
SWIDTH 466 0
DWIDTH 4 0
BBX 4 9 0 -1
BITMAP
01
1F
28
28
B4
74
28
29
1E
ENDCHAR
STARTCHAR bar
ENCODING 124
SWIDTH 267 0
DWIDTH 2 0
BBX 2 9 0 -1
BITMAP
10
70
70
70
70
70
70
70
60
ENDCHAR
STARTCHAR braceright
ENCODING 125
SWIDTH 466 0
DWIDTH 4 0
BBX 4 9 0 -1
BITMAP
10
B8
1C
1C
0F
1D
1C
6C
B4
ENDCHAR
STARTCHAR asciitilde
ENCODING 126
SWIDTH 451 0
DWIDTH 4 0
BBX 4 2 0 2
BITMAP
7A
54
ENDCHAR
STARTCHAR nonbreakingspace
ENCODING 160
SWIDTH 279 0
DWIDTH 3 0
BBX 1 1 0 0
BITMAP
00
ENDCHAR
STARTCHAR exclamdown
ENCODING 161
SWIDTH 274 0
DWIDTH 2 0
BBX 2 8 0 -2
BITMAP
10
70
10
60
70
70
70
10
ENDCHAR
STARTCHAR cent
ENCODING 162
SWIDTH 462 0
DWIDTH 4 0
BBX 4 7 0 0
BITMAP
04
18
7A
90
65
2D
08
ENDCHAR
STARTCHAR sterling
ENCODING 163
SWIDTH 681 0
DWIDTH 6 0
BBX 6 6 0 0
BITMAP
1E00
2400
7800
7800
39A0
3FD0
ENDCHAR
STARTCHAR currency
ENCODING 164
SWIDTH 454 0
DWIDTH 4 0
BBX 4 4 0 1
BITMAP
56
69
69
55
ENDCHAR
STARTCHAR yen
ENCODING 165
SWIDTH 653 0
DWIDTH 6 0
BBX 6 7 0 0
BITMAP
5040
A090
A090
75D0
3F80
7FD0
0A00
ENDCHAR
STARTCHAR brokenbar
ENCODING 166
SWIDTH 269 0
DWIDTH 2 0
BBX 2 9 0 -1
BITMAP
10
70
70
70
50
60
70
70
60
ENDCHAR
STARTCHAR section
ENCODING 167
SWIDTH 569 0
DWIDTH 5 0
BBX 5 7 0 0
BITMAP
1500
7F40
7A00
7A80
7F80
1A80
BF40
ENDCHAR
STARTCHAR dieresis
ENCODING 168
SWIDTH 300 0
DWIDTH 3 0
BBX 3 1 0 5
BITMAP
98
ENDCHAR
STARTCHAR copyright
ENCODING 169
SWIDTH 655 0
DWIDTH 6 0
BBX 6 6 0 0
BITMAP
1A00
6A80
A050
6550
2A80
0500
ENDCHAR
STARTCHAR ordfeminine
ENCODING 170
SWIDTH 451 0
DWIDTH 4 0
BBX 4 5 0 2
BITMAP
14
69
59
15
69
ENDCHAR
STARTCHAR guillemotleft
ENCODING 171
SWIDTH 704 0
DWIDTH 6 0
BBX 6 5 0 0
BITMAP
0410
2CA0
7280
39D0
0860
ENDCHAR
STARTCHAR logicalnot
ENCODING 172
SWIDTH 529 0
DWIDTH 5 0
BBX 5 3 0 1
BITMAP
6A00
5740
0100
ENDCHAR
STARTCHAR uni00AD
ENCODING 173
SWIDTH 418 0
DWIDTH 4 0
BBX 4 2 0 2
BITMAP
69
54
ENDCHAR
STARTCHAR registered
ENCODING 174
SWIDTH 439 0
DWIDTH 4 0
BBX 4 4 0 3
BITMAP
14
69
65
28
ENDCHAR
STARTCHAR macron
ENCODING 175
SWIDTH 247 0
DWIDTH 2 0
BBX 2 2 0 4
BITMAP
A0
50
ENDCHAR
STARTCHAR degree
ENCODING 176
SWIDTH 381 0
DWIDTH 3 0
BBX 3 3 0 3
BITMAP
78
AC
24
ENDCHAR
STARTCHAR plusminus
ENCODING 177
SWIDTH 516 0
DWIDTH 5 0
BBX 5 5 0 0
BITMAP
1800
7E00
6D00
1900
BF40
ENDCHAR
STARTCHAR twosuperior
ENCODING 178
SWIDTH 355 0
DWIDTH 3 0
BBX 3 4 0 3
BITMAP
10
68
64
68
ENDCHAR
STARTCHAR threesuperior
ENCODING 179
SWIDTH 354 0
DWIDTH 3 0
BBX 3 4 0 3
BITMAP
10
68
28
64
ENDCHAR
STARTCHAR acute
ENCODING 180
SWIDTH 225 0
DWIDTH 2 0
BBX 2 2 0 4
BITMAP
A0
40
ENDCHAR
STARTCHAR mu
ENCODING 181
SWIDTH 571 0
DWIDTH 5 0
BBX 5 7 0 -2
BITMAP
6180
6180
6180
7680
7E80
6000
6000
ENDCHAR
STARTCHAR paragraph
ENCODING 182
SWIDTH 808 0
DWIDTH 7 0
BBX 7 7 0 0
BITMAP
0554
2FF8
B368
A368
7B68
1B68
0368
ENDCHAR
STARTCHAR periodcentered
ENCODING 183
SWIDTH 261 0
DWIDTH 2 0
BBX 2 2 0 2
BITMAP
60
50
ENDCHAR
STARTCHAR cedilla
ENCODING 184
SWIDTH 208 0
DWIDTH 2 0
BBX 2 2 0 -2
BITMAP
60
A0
ENDCHAR
STARTCHAR onesuperior
ENCODING 185
SWIDTH 231 0
DWIDTH 2 0
BBX 2 4 0 3
BITMAP
40
60
60
50
ENDCHAR
STARTCHAR ordmasculine
ENCODING 186
SWIDTH 432 0
DWIDTH 4 0
BBX 4 5 0 2
BITMAP
14
69
59
14
69
ENDCHAR
STARTCHAR guillemotright
ENCODING 187
SWIDTH 703 0
DWIDTH 6 0
BBX 6 5 0 0
BITMAP
1100
7680
1CA0
39D0
6240
ENDCHAR
STARTCHAR onequarter
ENCODING 188
SWIDTH 648 0
DWIDTH 6 0
BBX 6 7 0 0
BITMAP
1040
6240
2600
2900
1A90
2390
6190
ENDCHAR
STARTCHAR onehalf
ENCODING 189
SWIDTH 637 0
DWIDTH 6 0
BBX 6 7 0 0
BITMAP
1040
6240
2600
2900
1AD0
2290
63D0
ENDCHAR
STARTCHAR threequarters
ENCODING 190
SWIDTH 708 0
DWIDTH 6 0
BBX 6 7 0 0
BITMAP
5040
6880
6A40
6A00
09A0
19B0
2170
ENDCHAR
STARTCHAR questiondown
ENCODING 191
SWIDTH 602 0
DWIDTH 5 0
BBX 5 8 0 -2
BITMAP
0100
0700
0200
1B00
7900
A000
7FC0
0540
ENDCHAR
STARTCHAR Agrave
ENCODING 192
SWIDTH 673 0
DWIDTH 6 0
BBX 6 8 0 0
BITMAP
1C00
0500
2F80
70D0
60A0
7AE0
7AE0
60A0
ENDCHAR
STARTCHAR Aacute
ENCODING 193
SWIDTH 673 0
DWIDTH 6 0
BBX 6 8 0 0
BITMAP
0340
0500
2F80
70D0
60A0
7AE0
7AE0
60A0
ENDCHAR
STARTCHAR Acircumflex
ENCODING 194
SWIDTH 673 0
DWIDTH 6 0
BBX 6 8 0 0
BITMAP
0A00
0500
2F80
70D0
60A0
7AE0
7AE0
60A0
ENDCHAR
STARTCHAR Atilde
ENCODING 195
SWIDTH 673 0
DWIDTH 6 0
BBX 6 8 0 0
BITMAP
1F40
0500
2F80
70D0
60A0
7AE0
7AE0
60A0
ENDCHAR
STARTCHAR Adieresis
ENCODING 196
SWIDTH 673 0
DWIDTH 6 0
BBX 6 8 0 0
BITMAP
1A40
0500
2F80
70D0
60A0
7AE0
7AE0
60A0
ENDCHAR
STARTCHAR Aring
ENCODING 197
SWIDTH 673 0
DWIDTH 6 0
BBX 6 8 0 0
BITMAP
0500
0A00
2F80
70D0
60A0
7AE0
7AE0
60A0
ENDCHAR
STARTCHAR AE
ENCODING 198
SWIDTH 988 0
DWIDTH 9 0
BBX 9 7 0 0
BITMAP
055540
2FFF80
70A000
60B900
7AE500
7AE500
60BF80
ENDCHAR
STARTCHAR Ccedilla
ENCODING 199
SWIDTH 640 0
DWIDTH 6 0
BBX 6 9 0 -2
BITMAP
0540
2FD0
7440
A000
A000
7540
1FD0
0600
0A00
ENDCHAR
STARTCHAR Egrave
ENCODING 200
SWIDTH 578 0
DWIDTH 5 0
BBX 5 8 0 0
BITMAP
1800
1940
7FC0
7000
7A00
7500
7540
7FC0
ENDCHAR
STARTCHAR Eacute
ENCODING 201
SWIDTH 578 0
DWIDTH 5 0
BBX 5 8 0 0
BITMAP
0700
1940
7FC0
7000
7A00
7500
7540
7FC0
ENDCHAR
STARTCHAR Ecircumflex
ENCODING 202
SWIDTH 578 0
DWIDTH 5 0
BBX 5 8 0 0
BITMAP
0E00
1640
7FC0
7000
7A00
7500
7540
7FC0
ENDCHAR
STARTCHAR Edieresis
ENCODING 203
SWIDTH 578 0
DWIDTH 5 0
BBX 5 8 0 0
BITMAP
1600
1540
7FC0
7000
7A00
7500
7540
7FC0
ENDCHAR
STARTCHAR Igrave
ENCODING 204
SWIDTH 270 0
DWIDTH 2 0
BBX 2 8 0 0
BITMAP
D0
50
70
70
70
70
70
70
ENDCHAR
STARTCHAR Iacute
ENCODING 205
SWIDTH 270 0
DWIDTH 2 0
BBX 3 8 0 0
BITMAP
24
20
70
70
70
70
70
70
ENDCHAR
STARTCHAR Icircumflex
ENCODING 206
SWIDTH 270 0
DWIDTH 2 0
BBX 2 8 0 0
BITMAP
B0
50
70
70
70
70
70
70
ENDCHAR
STARTCHAR Idieresis
ENCODING 207
SWIDTH 270 0
DWIDTH 2 0
BBX 3 8 0 0
BITMAP
94
50
70
70
70
70
70
70
ENDCHAR
STARTCHAR Eth
ENCODING 208
SWIDTH 672 0
DWIDTH 6 0
BBX 6 7 0 0
BITMAP
1400
7F80
71D0
B8A0
B4A0
76D0
7F40
ENDCHAR
STARTCHAR Ntilde
ENCODING 209
SWIDTH 689 0
DWIDTH 6 0
BBX 6 8 0 0
BITMAP
1F40
1550
74A0
7CA0
7AA0
77A0
72E0
70E0
ENDCHAR
STARTCHAR Ograve
ENCODING 210
SWIDTH 777 0
DWIDTH 7 0
BBX 7 8 0 0
BITMAP
0A00
0640
2FE0
7474
A028
A028
7574
1FD0
ENDCHAR
STARTCHAR Oacute
ENCODING 211
SWIDTH 777 0
DWIDTH 7 0
BBX 7 8 0 0
BITMAP
0180
0640
2FE0
7474
A028
A028
7574
1FD0
ENDCHAR
STARTCHAR Ocircumflex
ENCODING 212
SWIDTH 777 0
DWIDTH 7 0
BBX 7 8 0 0
BITMAP
0740
0540
2FE0
7474
A028
A028
7574
1FD0
ENDCHAR
STARTCHAR Otilde
ENCODING 213
SWIDTH 777 0
DWIDTH 7 0
BBX 7 8 0 0
BITMAP
0EC0
0540
2FE0
7474
A028
A028
7574
1FD0
ENDCHAR
STARTCHAR Odieresis
ENCODING 214
SWIDTH 777 0
DWIDTH 7 0
BBX 7 8 0 0
BITMAP
0980
0540
2FE0
7474
A028
A028
7574
1FD0
ENDCHAR
STARTCHAR multiply
ENCODING 215
SWIDTH 479 0
DWIDTH 4 0
BBX 4 4 0 1
BITMAP
65
3D
7E
10
ENDCHAR
STARTCHAR Oslash
ENCODING 216
SWIDTH 777 0
DWIDTH 7 0
BBX 7 7 0 0
BITMAP
0550
2FF0
74F4
A268
AA28
7D74
3FD0
ENDCHAR
STARTCHAR Ugrave
ENCODING 217
SWIDTH 673 0
DWIDTH 6 0
BBX 6 8 0 0
BITMAP
1D00
1440
60A0
60A0
60A0
60A0
75D0
1F40
ENDCHAR
STARTCHAR Uacute
ENCODING 218
SWIDTH 673 0
DWIDTH 6 0
BBX 6 8 0 0
BITMAP
0240
1140
60A0
60A0
60A0
60A0
75D0
1F40
ENDCHAR
STARTCHAR Ucircumflex
ENCODING 219
SWIDTH 673 0
DWIDTH 6 0
BBX 6 8 0 0
BITMAP
0A00
1540
60A0
60A0
60A0
60A0
75D0
1F40
ENDCHAR
STARTCHAR Udieresis
ENCODING 220
SWIDTH 673 0
DWIDTH 6 0
BBX 6 8 0 0
BITMAP
1A40
1040
60A0
60A0
60A0
60A0
75D0
1F40
ENDCHAR
STARTCHAR Yacute
ENCODING 221
SWIDTH 620 0
DWIDTH 6 0
BBX 6 8 0 0
BITMAP
0700
4540
A0D0
A0D0
B5C0
2F40
0D00
0D00
ENDCHAR
STARTCHAR Thorn
ENCODING 222
SWIDTH 637 0
DWIDTH 6 0
BBX 6 8 0 -1
BITMAP
5000
7A40
7AD0
70A0
70D0
7FC0
7500
1000
ENDCHAR
STARTCHAR germandbls
ENCODING 223
SWIDTH 813 0
DWIDTH 7 0
BBX 8 7 0 0
BITMAP
1FD0
35A0
B2E0
7740
77F8
716D
73F8
ENDCHAR
STARTCHAR agrave
ENCODING 224
SWIDTH 607 0
DWIDTH 5 0
BBX 5 7 0 0
BITMAP
2800
0400
2E40
B6C0
91C0
A2C0
2F80
ENDCHAR
STARTCHAR aacute
ENCODING 225
SWIDTH 607 0
DWIDTH 5 0
BBX 5 7 0 0
BITMAP
0700
0400
2E40
B6C0
91C0
A2C0
2F80
ENDCHAR
STARTCHAR acircumflex
ENCODING 226
SWIDTH 607 0
DWIDTH 5 0
BBX 5 7 0 0
BITMAP
1D00
0100
2E40
B6C0
91C0
A2C0
2F80
ENDCHAR
STARTCHAR atilde
ENCODING 227
SWIDTH 607 0
DWIDTH 5 0
BBX 5 6 0 0
BITMAP
2B00
2E40
B6C0
91C0
A2C0
2F80
ENDCHAR
STARTCHAR adieresis
ENCODING 228
SWIDTH 607 0
DWIDTH 5 0
BBX 5 6 0 0
BITMAP
2600
2E40
B6C0
91C0
A2C0
2F80
ENDCHAR
STARTCHAR aring
ENCODING 229
SWIDTH 607 0
DWIDTH 5 0
BBX 5 8 0 0
BITMAP
0400
1900
0400
2E40
B6C0
91C0
A2C0
2F80
ENDCHAR
STARTCHAR ae
ENCODING 230
SWIDTH 976 0
DWIDTH 9 0
BBX 9 5 0 0
BITMAP
2E6E00
B6FB40
91EA00
A2F900
2FAF40
ENDCHAR
STARTCHAR ccedilla
ENCODING 231
SWIDTH 521 0
DWIDTH 5 0
BBX 5 7 0 -2
BITMAP
2E00
7640
9000
A100
2F40
0800
1D00
ENDCHAR
STARTCHAR egrave
ENCODING 232
SWIDTH 524 0
DWIDTH 5 0
BBX 5 7 0 0
BITMAP
2800
0400
2E00
BB40
AD00
B900
2F40
ENDCHAR
STARTCHAR eacute
ENCODING 233
SWIDTH 524 0
DWIDTH 5 0
BBX 5 7 0 0
BITMAP
0600
0400
2E00
BB40
AD00
B900
2F40
ENDCHAR
STARTCHAR ecircumflex
ENCODING 234
SWIDTH 524 0
DWIDTH 5 0
BBX 5 7 0 0
BITMAP
1D00
1000
2E00
BB40
AD00
B900
2F40
ENDCHAR
STARTCHAR edieresis
ENCODING 235
SWIDTH 524 0
DWIDTH 5 0
BBX 5 6 0 0
BITMAP
2600
2E00
BB40
AD00
B900
2F40
ENDCHAR
STARTCHAR igrave
ENCODING 236
SWIDTH 235 0
DWIDTH 2 0
BBX 3 7 -1 0
BITMAP
74
10
14
28
28
28
28
ENDCHAR
STARTCHAR iacute
ENCODING 237
SWIDTH 235 0
DWIDTH 2 0
BBX 3 7 0 0
BITMAP
34
10
50
A0
A0
A0
A0
ENDCHAR
STARTCHAR icircumflex
ENCODING 238
SWIDTH 235 0
DWIDTH 2 0
BBX 2 7 0 0
BITMAP
A0
50
50
A0
A0
A0
A0
ENDCHAR
STARTCHAR idieresis
ENCODING 239
SWIDTH 235 0
DWIDTH 2 0
BBX 4 6 -1 0
BITMAP
65
28
28
28
28
28
ENDCHAR
STARTCHAR eth
ENCODING 240
SWIDTH 581 0
DWIDTH 5 0
BBX 5 7 0 0
BITMAP
1A40
2B80
2B40
7680
91C0
A280
2F40
ENDCHAR
STARTCHAR ntilde
ENCODING 241
SWIDTH 562 0
DWIDTH 5 0
BBX 5 6 0 0
BITMAP
2B00
6A00
B740
A280
A280
A280
ENDCHAR
STARTCHAR ograve
ENCODING 242
SWIDTH 579 0
DWIDTH 5 0
BBX 5 7 0 0
BITMAP
2800
0400
2E00
B680
91C0
A280
2F40
ENDCHAR
STARTCHAR oacute
ENCODING 243
SWIDTH 579 0
DWIDTH 5 0
BBX 5 7 0 0
BITMAP
0700
0400
2E00
B680
91C0
A280
2F40
ENDCHAR
STARTCHAR ocircumflex
ENCODING 244
SWIDTH 579 0
DWIDTH 5 0
BBX 5 7 0 0
BITMAP
1D00
0100
2E00
B680
91C0
A280
2F40
ENDCHAR
STARTCHAR otilde
ENCODING 245
SWIDTH 579 0
DWIDTH 5 0
BBX 5 6 0 0
BITMAP
2B00
2F00
B680
91C0
A280
2F40
ENDCHAR
STARTCHAR odieresis
ENCODING 246
SWIDTH 579 0
DWIDTH 5 0
BBX 5 6 0 0
BITMAP
2600
2E00
B680
91C0
A280
2F40
ENDCHAR
STARTCHAR divide
ENCODING 247
SWIDTH 494 0
DWIDTH 4 0
BBX 4 5 0 1
BITMAP
04
18
6A
59
18
ENDCHAR
STARTCHAR oslash
ENCODING 248
SWIDTH 579 0
DWIDTH 5 0
BBX 5 5 0 0
BITMAP
2E80
BB80
AEC0
BA80
7F40
ENDCHAR
STARTCHAR ugrave
ENCODING 249
SWIDTH 562 0
DWIDTH 5 0
BBX 5 7 0 0
BITMAP
2800
0400
5140
A280
A280
6680
2E80
ENDCHAR
STARTCHAR uacute
ENCODING 250
SWIDTH 562 0
DWIDTH 5 0
BBX 5 7 0 0
BITMAP
0A00
0400
5140
A280
A280
6680
2E80
ENDCHAR
STARTCHAR ucircumflex
ENCODING 251
SWIDTH 562 0
DWIDTH 5 0
BBX 5 6 0 0
BITMAP
1D00
6240
A280
A280
6680
2E80
ENDCHAR
STARTCHAR udieresis
ENCODING 252
SWIDTH 562 0
DWIDTH 5 0
BBX 5 6 0 0
BITMAP
2600
6240
A280
A280
6680
2E80
ENDCHAR
STARTCHAR yacute
ENCODING 253
SWIDTH 562 0
DWIDTH 5 0
BBX 5 9 0 -2
BITMAP
0A00
0400
5140
A280
A280
6680
2F80
1B40
1900
ENDCHAR
STARTCHAR thorn
ENCODING 254
SWIDTH 608 0
DWIDTH 5 0
BBX 6 9 0 -2
BITMAP
5000
A000
BA40
B6C0
A0D0
B5C0
BF40
A000
6000
ENDCHAR
STARTCHAR ydieresis
ENCODING 255
SWIDTH 562 0
DWIDTH 5 0
BBX 5 8 0 -2
BITMAP
2600
6240
A280
A280
6680
2F80
1B40
1900
ENDCHAR
STARTCHAR Amacron
ENCODING 256
SWIDTH 673 0
DWIDTH 6 0
BBX 6 8 0 0
BITMAP
0A00
0500
2F80
70D0
60A0
7AE0
7AE0
60A0
ENDCHAR
STARTCHAR amacron
ENCODING 257
SWIDTH 607 0
DWIDTH 5 0
BBX 5 6 0 0
BITMAP
1900
2E40
B6C0
91C0
A2C0
2F80
ENDCHAR
STARTCHAR Abreve
ENCODING 258
SWIDTH 673 0
DWIDTH 6 0
BBX 6 8 0 0
BITMAP
0A00
0500
2F80
70D0
60A0
7AE0
7AE0
60A0
ENDCHAR
STARTCHAR abreve
ENCODING 259
SWIDTH 607 0
DWIDTH 5 0
BBX 5 6 0 0
BITMAP
1D00
2E40
B6C0
91C0
A2C0
2F80
ENDCHAR
STARTCHAR Aogonek
ENCODING 260
SWIDTH 673 0
DWIDTH 6 0
BBX 6 9 0 -2
BITMAP
0500
2F80
70D0
60A0
7AE0
7AE0
60A0
0090
0050
ENDCHAR
STARTCHAR aogonek
ENCODING 261
SWIDTH 607 0
DWIDTH 5 0
BBX 6 7 0 -2
BITMAP
2E40
B6C0
91C0
A2C0
2F80
0080
0090
ENDCHAR
STARTCHAR Cacute
ENCODING 262
SWIDTH 640 0
DWIDTH 6 0
BBX 6 8 0 0
BITMAP
0280
0640
2FD0
7440
A000
A000
7540
1FD0
ENDCHAR
STARTCHAR cacute
ENCODING 263
SWIDTH 521 0
DWIDTH 5 0
BBX 5 7 0 0
BITMAP
0A00
0400
2E00
7640
9000
A100
2F40
ENDCHAR
STARTCHAR Ccircumflex
ENCODING 264
SWIDTH 640 0
DWIDTH 6 0
BBX 6 8 0 0
BITMAP
0740
0540
2FD0
7440
A000
A000
7540
1FD0
ENDCHAR
STARTCHAR ccircumflex
ENCODING 265
SWIDTH 521 0
DWIDTH 5 0
BBX 5 7 0 0
BITMAP
1D00
0100
2E00
7640
9000
A100
2F40
ENDCHAR
STARTCHAR Cdotaccent
ENCODING 266
SWIDTH 640 0
DWIDTH 6 0
BBX 6 8 0 0
BITMAP
0200
0540
2FD0
7440
A000
A000
7540
1FD0
ENDCHAR
STARTCHAR cdotaccent
ENCODING 267
SWIDTH 521 0
DWIDTH 5 0
BBX 5 6 0 0
BITMAP
0800
2E00
7640
9000
A100
2F40
ENDCHAR
STARTCHAR Ccaron
ENCODING 268
SWIDTH 640 0
DWIDTH 6 0
BBX 6 8 0 0
BITMAP
0740
0640
2FD0
7440
A000
A000
7540
1FD0
ENDCHAR
STARTCHAR ccaron
ENCODING 269
SWIDTH 521 0
DWIDTH 5 0
BBX 5 7 0 0
BITMAP
1D00
0000
2E00
7640
9000
A100
2F40
ENDCHAR
STARTCHAR Dcaron
ENCODING 270
SWIDTH 653 0
DWIDTH 6 0
BBX 6 8 0 0
BITMAP
0A00
1500
7F80
71D0
70A0
70A0
76C0
7E40
ENDCHAR
STARTCHAR dcaron
ENCODING 271
SWIDTH 740 0
DWIDTH 7 0
BBX 7 7 0 0
BITMAP
0080
01D8
2EC4
76C0
91C0
A6C0
2F80
ENDCHAR
STARTCHAR Dcroat
ENCODING 272
SWIDTH 672 0
DWIDTH 6 0
BBX 6 7 0 0
BITMAP
1400
7F80
71D0
B8A0
B4A0
76D0
7F40
ENDCHAR
STARTCHAR dcroat
ENCODING 273
SWIDTH 606 0
DWIDTH 5 0
BBX 6 7 0 0
BITMAP
0180
02D0
2EC0
76C0
91C0
A6C0
2F80
ENDCHAR
STARTCHAR Emacron
ENCODING 274
SWIDTH 578 0
DWIDTH 5 0
BBX 5 8 0 0
BITMAP
1A00
1540
7FC0
7000
7A00
7500
7540
7FC0
ENDCHAR
STARTCHAR emacron
ENCODING 275
SWIDTH 524 0
DWIDTH 5 0
BBX 5 6 0 0
BITMAP
1900
2E00
BB40
AD00
B900
2F40
ENDCHAR
STARTCHAR Ebreve
ENCODING 276
SWIDTH 578 0
DWIDTH 5 0
BBX 5 8 0 0
BITMAP
1E00
1540
7FC0
7000
7A00
7500
7540
7FC0
ENDCHAR
STARTCHAR ebreve
ENCODING 277
SWIDTH 524 0
DWIDTH 5 0
BBX 5 6 0 0
BITMAP
1D00
2E00
BB40
AD00
B900
2F40
ENDCHAR
STARTCHAR Edotaccent
ENCODING 278
SWIDTH 578 0
DWIDTH 5 0
BBX 5 8 0 0
BITMAP
0900
1540
7FC0
7000
7A00
7500
7540
7FC0
ENDCHAR
STARTCHAR edotaccent
ENCODING 279
SWIDTH 524 0
DWIDTH 5 0
BBX 5 6 0 0
BITMAP
0800
2E00
BB40
AD00
B900
2F40
ENDCHAR
STARTCHAR Eogonek
ENCODING 280
SWIDTH 578 0
DWIDTH 5 0
BBX 5 9 0 -2
BITMAP
1540
7FC0
7000
7A00
7500
7540
7FC0
0240
0140
ENDCHAR
STARTCHAR eogonek
ENCODING 281
SWIDTH 524 0
DWIDTH 5 0
BBX 5 7 0 -2
BITMAP
2E00
BB40
AD00
B900
2F40
0A00
0600
ENDCHAR
STARTCHAR Ecaron
ENCODING 282
SWIDTH 578 0
DWIDTH 5 0
BBX 5 8 0 0
BITMAP
1E00
1540
7FC0
7000
7A00
7500
7540
7FC0
ENDCHAR
STARTCHAR ecaron
ENCODING 283
SWIDTH 524 0
DWIDTH 5 0
BBX 5 7 0 0
BITMAP
1D00
0000
2E00
BB40
AD00
B900
2F40
ENDCHAR
STARTCHAR Gcircumflex
ENCODING 284
SWIDTH 665 0
DWIDTH 6 0
BBX 6 8 0 0
BITMAP
0740
0540
2FD0
7440
A000
A0A0
74A0
1FD0
ENDCHAR
STARTCHAR gcircumflex
ENCODING 285
SWIDTH 607 0
DWIDTH 5 0
BBX 5 9 0 -2
BITMAP
1D00
0100
2E40
76C0
91C0
A6C0
2FC0
0680
0A00
ENDCHAR
STARTCHAR Gbreve
ENCODING 286
SWIDTH 665 0
DWIDTH 6 0
BBX 6 8 0 0
BITMAP
0B40
0500
2FD0
7440
A000
A0A0
74A0
1FD0
ENDCHAR
STARTCHAR gbreve
ENCODING 287
SWIDTH 607 0
DWIDTH 5 0
BBX 5 8 0 -2
BITMAP
1D00
2E40
76C0
91C0
A6C0
2FC0
0680
0A00
ENDCHAR
STARTCHAR Gdotaccent
ENCODING 288
SWIDTH 665 0
DWIDTH 6 0
BBX 6 8 0 0
BITMAP
0200
0500
2FD0
7440
A000
A0A0
74A0
1FD0
ENDCHAR
STARTCHAR gdotaccent
ENCODING 289
SWIDTH 607 0
DWIDTH 5 0
BBX 5 8 0 -2
BITMAP
0800
2E40
76C0
91C0
A6C0
2FC0
0680
0A00
ENDCHAR
STARTCHAR Gcommaaccent
ENCODING 290
SWIDTH 665 0
DWIDTH 6 0
BBX 6 9 0 -2
BITMAP
0500
2FD0
7440
A000
A0A0
74A0
1FD0
0200
0200
ENDCHAR
STARTCHAR gcommaaccent
ENCODING 291
SWIDTH 607 0
DWIDTH 5 0
BBX 5 9 0 -2
BITMAP
0400
0C00
2E40
76C0
91C0
A6C0
2FC0
0680
0A00
ENDCHAR
STARTCHAR Hcircumflex
ENCODING 292
SWIDTH 689 0
DWIDTH 6 0
BBX 6 8 0 0
BITMAP
0A00
1550
70A0
70A0
7AE0
75A0
70A0
70A0
ENDCHAR
STARTCHAR hcircumflex
ENCODING 293
SWIDTH 562 0
DWIDTH 5 0
BBX 5 7 0 0
BITMAP
5A00
A500
BA00
B740
A280
A280
A280
ENDCHAR
STARTCHAR Hbar
ENCODING 294
SWIDTH 689 0
DWIDTH 6 0
BBX 6 7 0 0
BITMAP
1050
BAA0
BAF0
7AE0
75A0
70A0
70A0
ENDCHAR
STARTCHAR hbar
ENCODING 295
SWIDTH 562 0
DWIDTH 5 0
BBX 5 7 0 0
BITMAP
5000
F000
BA00
B740
A280
A280
A280
ENDCHAR
STARTCHAR Itilde
ENCODING 296
SWIDTH 270 0
DWIDTH 2 0
BBX 3 8 0 0
BITMAP
F8
50
70
70
70
70
70
70
ENDCHAR
STARTCHAR itilde
ENCODING 297
SWIDTH 235 0
DWIDTH 2 0
BBX 4 6 -1 0
BITMAP
7D
28
28
28
28
28
ENDCHAR
STARTCHAR Imacron
ENCODING 298
SWIDTH 270 0
DWIDTH 2 0
BBX 3 8 0 0
BITMAP
A4
50
70
70
70
70
70
70
ENDCHAR
STARTCHAR imacron
ENCODING 299
SWIDTH 235 0
DWIDTH 2 0
BBX 2 6 0 0
BITMAP
A0
A0
A0
A0
A0
A0
ENDCHAR
STARTCHAR Ibreve
ENCODING 300
SWIDTH 270 0
DWIDTH 2 0
BBX 2 8 0 0
BITMAP
B0
10
70
70
70
70
70
70
ENDCHAR
STARTCHAR ibreve
ENCODING 301
SWIDTH 235 0
DWIDTH 2 0
BBX 2 6 0 0
BITMAP
B0
60
A0
A0
A0
A0
ENDCHAR
STARTCHAR Iogonek
ENCODING 302
SWIDTH 270 0
DWIDTH 2 0
BBX 2 9 0 -2
BITMAP
10
70
70
70
70
70
70
90
60
ENDCHAR
STARTCHAR iogonek
ENCODING 303
SWIDTH 235 0
DWIDTH 2 0
BBX 2 9 0 -2
BITMAP
60
60
50
A0
A0
A0
A0
90
50
ENDCHAR
STARTCHAR Idotaccent
ENCODING 304
SWIDTH 270 0
DWIDTH 2 0
BBX 2 8 0 0
BITMAP
60
10
70
70
70
70
70
70
ENDCHAR
STARTCHAR dotlessi
ENCODING 305
SWIDTH 235 0
DWIDTH 2 0
BBX 2 5 0 0
BITMAP
50
A0
A0
A0
A0
ENDCHAR
STARTCHAR IJ
ENCODING 306
SWIDTH 687 0
DWIDTH 6 0
BBX 6 7 0 0
BITMAP
1050
70A0
70A0
70A0
70A0
71D0
7780
ENDCHAR
STARTCHAR ij
ENCODING 307
SWIDTH 474 0
DWIDTH 4 0
BBX 4 9 0 -2
BITMAP
66
66
56
A6
A6
A6
A6
1D
24
ENDCHAR
STARTCHAR Jcircumflex
ENCODING 308
SWIDTH 416 0
DWIDTH 4 0
BBX 4 8 0 0
BITMAP
1D
05
0D
0D
0D
0D
6C
E4
ENDCHAR
STARTCHAR jcircumflex
ENCODING 309
SWIDTH 237 0
DWIDTH 2 0
BBX 4 8 -2 -2
BITMAP
0A
0A
0A
0A
0A
0A
1D
64
ENDCHAR
STARTCHAR Kcommaaccent
ENCODING 310
SWIDTH 625 0
DWIDTH 6 0
BBX 6 9 0 -2
BITMAP
1040
71C0
7740
7E00
7B40
7280
70D0
0400
0900
ENDCHAR
STARTCHAR kcommaaccent
ENCODING 311
SWIDTH 539 0
DWIDTH 5 0
BBX 5 9 0 -2
BITMAP
5000
A000
A240
A700
BD00
BB00
A280
0400
0800
ENDCHAR
STARTCHAR kgreenlandic
ENCODING 312
SWIDTH 539 0
DWIDTH 5 0
BBX 5 5 0 0
BITMAP
5240
A700
BD00
BB00
A280
ENDCHAR
STARTCHAR Lacute
ENCODING 313
SWIDTH 562 0
DWIDTH 5 0
BBX 5 8 0 0
BITMAP
0A00
1400
7000
7000
7000
7000
7540
7FC0
ENDCHAR
STARTCHAR lacute
ENCODING 314
SWIDTH 235 0
DWIDTH 2 0
BBX 3 9 0 0
BITMAP
28
10
50
A0
A0
A0
A0
A0
A0
ENDCHAR
STARTCHAR Lcommaaccent
ENCODING 315
SWIDTH 562 0
DWIDTH 5 0
BBX 5 9 0 -2
BITMAP
1000
7000
7000
7000
7000
7540
7FC0
0400
0800
ENDCHAR
STARTCHAR lcommaaccent
ENCODING 316
SWIDTH 235 0
DWIDTH 2 0
BBX 2 9 0 -2
BITMAP
50
A0
A0
A0
A0
A0
A0
50
60
ENDCHAR
STARTCHAR Lcaron
ENCODING 317
SWIDTH 562 0
DWIDTH 5 0
BBX 5 7 0 0
BITMAP
1000
7600
7000
7000
7000
7540
7FC0
ENDCHAR
STARTCHAR lcaron
ENCODING 318
SWIDTH 369 0
DWIDTH 3 0
BBX 4 7 0 0
BITMAP
54
A9
A4
A0
A0
A0
A0
ENDCHAR
STARTCHAR Ldot
ENCODING 319
SWIDTH 745 0
DWIDTH 7 0
BBX 6 7 0 0
BITMAP
1000
7000
7000
7020
7020
7540
7FC0
ENDCHAR
STARTCHAR ldotaccent
ENCODING 320
SWIDTH 463 0
DWIDTH 4 0
BBX 4 7 0 0
BITMAP
50
A0
A0
AA
A5
A0
A0
ENDCHAR
STARTCHAR Lslash
ENCODING 321
SWIDTH 585 0
DWIDTH 5 0
BBX 6 7 0 0
BITMAP
1000
7000
7400
7800
F000
7540
7FD0
ENDCHAR
STARTCHAR lslash
ENCODING 322
SWIDTH 319 0
DWIDTH 3 0
BBX 3 7 0 0
BITMAP
20
70
74
78
F0
70
70
ENDCHAR
STARTCHAR Nacute
ENCODING 323
SWIDTH 689 0
DWIDTH 6 0
BBX 6 8 0 0
BITMAP
0340
1150
74A0
7CA0
7AA0
77A0
72E0
70E0
ENDCHAR
STARTCHAR nacute
ENCODING 324
SWIDTH 562 0
DWIDTH 5 0
BBX 5 7 0 0
BITMAP
0700
0400
5A00
B740
A280
A280
A280
ENDCHAR
STARTCHAR Ncommaaccent
ENCODING 325
SWIDTH 689 0
DWIDTH 6 0
BBX 6 9 0 -2
BITMAP
1050
74A0
7CA0
7AA0
77A0
72E0
70E0
0500
0600
ENDCHAR
STARTCHAR ncommaaccent
ENCODING 326
SWIDTH 562 0
DWIDTH 5 0
BBX 5 7 0 -2
BITMAP
5A00
B740
A280
A280
A280
0400
0800
ENDCHAR
STARTCHAR Ncaron
ENCODING 327
SWIDTH 689 0
DWIDTH 6 0
BBX 6 8 0 0
BITMAP
0B00
1050
74A0
7CA0
7AA0
77A0
72E0
70E0
ENDCHAR
STARTCHAR ncaron
ENCODING 328
SWIDTH 562 0
DWIDTH 5 0
BBX 5 7 0 0
BITMAP
1D00
0000
5A00
B740
A280
A280
A280
ENDCHAR
STARTCHAR napostrophe
ENCODING 329
SWIDTH 694 0
DWIDTH 6 0
BBX 6 7 0 0
BITMAP
4000
C000
5680
1EA0
1C70
1C70
1C70
ENDCHAR
STARTCHAR Eng
ENCODING 330
SWIDTH 689 0
DWIDTH 6 0
BBX 6 9 0 -2
BITMAP
1050
74A0
7CA0
7AA0
77A0
72E0
70E0
06D0
0640
ENDCHAR
STARTCHAR eng
ENCODING 331
SWIDTH 562 0
DWIDTH 5 0
BBX 5 7 0 -2
BITMAP
5A00
B740
A280
A280
A280
0740
1900
ENDCHAR
STARTCHAR Omacron
ENCODING 332
SWIDTH 777 0
DWIDTH 7 0
BBX 7 8 0 0
BITMAP
0640
0640
2FE0
7474
A028
A028
7574
1FD0
ENDCHAR
STARTCHAR omacron
ENCODING 333
SWIDTH 579 0
DWIDTH 5 0
BBX 5 6 0 0
BITMAP
1A00
2E00
B680
91C0
A280
2F40
ENDCHAR
STARTCHAR Obreve
ENCODING 334
SWIDTH 777 0
DWIDTH 7 0
BBX 7 8 0 0
BITMAP
0740
0540
2FE0
7474
A028
A028
7574
1FD0
ENDCHAR
STARTCHAR obreve
ENCODING 335
SWIDTH 579 0
DWIDTH 5 0
BBX 5 6 0 0
BITMAP
1E00
2E00
B680
91C0
A280
2F40
ENDCHAR
STARTCHAR Ohungarumlaut
ENCODING 336
SWIDTH 777 0
DWIDTH 7 0
BBX 7 9 0 0
BITMAP
0140
0AD0
0540
2FE0
7474
A028
A028
7574
1FD0
ENDCHAR
STARTCHAR ohungarumlaut
ENCODING 337
SWIDTH 579 0
DWIDTH 5 0
BBX 5 7 0 0
BITMAP
0500
1B40
2F00
B680
91C0
A280
2F40
ENDCHAR
STARTCHAR OE
ENCODING 338
SWIDTH 1125 0
DWIDTH 10 0
BBX 10 7 0 0
BITMAP
054550
2FFFE0
747800
A02E80
A02D40
757D50
1FEFE0
ENDCHAR
STARTCHAR oe
ENCODING 339
SWIDTH 924 0
DWIDTH 8 0
BBX 8 5 0 0
BITMAP
2E6D
B6EA
91DC
A2F5
2F7E
ENDCHAR
STARTCHAR Racute
ENCODING 340
SWIDTH 651 0
DWIDTH 6 0
BBX 6 8 0 0
BITMAP
0700
1500
7F80
70D0
70A0
7AD0
7B80
71C0
ENDCHAR
STARTCHAR racute
ENCODING 341
SWIDTH 414 0
DWIDTH 4 0
BBX 4 7 0 0
BITMAP
0D
04
59
B9
A0
A0
A0
ENDCHAR
STARTCHAR Rcommaaccent
ENCODING 342
SWIDTH 651 0
DWIDTH 6 0
BBX 6 9 0 -2
BITMAP
1500
7F80
70D0
70A0
7AD0
7B80
71C0
0500
0500
ENDCHAR
STARTCHAR rcommaaccent
ENCODING 343
SWIDTH 414 0
DWIDTH 4 0
BBX 4 7 0 -2
BITMAP
59
B9
A0
A0
A0
50
60
ENDCHAR
STARTCHAR Rcaron
ENCODING 344
SWIDTH 651 0
DWIDTH 6 0
BBX 6 8 0 0
BITMAP
0A00
1500
7F80
70D0
70A0
7AD0
7B80
71C0
ENDCHAR
STARTCHAR rcaron
ENCODING 345
SWIDTH 414 0
DWIDTH 4 0
BBX 4 6 0 0
BITMAP
38
69
B9
A0
A0
A0
ENDCHAR
STARTCHAR Sacute
ENCODING 346
SWIDTH 610 0
DWIDTH 6 0
BBX 5 8 0 0
BITMAP
0700
0540
7FC0
A000
7A40
16C0
15C0
7F80
ENDCHAR
STARTCHAR sacute
ENCODING 347
SWIDTH 523 0
DWIDTH 5 0
BBX 5 7 0 0
BITMAP
0A00
0400
2A00
AA00
7E00
1B40
BF00
ENDCHAR
STARTCHAR Scircumflex
ENCODING 348
SWIDTH 610 0
DWIDTH 6 0
BBX 5 8 0 0
BITMAP
0E00
1640
7FC0
A000
7A40
16C0
15C0
7F80
ENDCHAR
STARTCHAR scircumflex
ENCODING 349
SWIDTH 523 0
DWIDTH 5 0
BBX 5 7 0 0
BITMAP
1D00
1000
2A00
AA00
7E00
1B40
BF00
ENDCHAR
STARTCHAR Scedilla
ENCODING 350
SWIDTH 610 0
DWIDTH 6 0
BBX 5 9 0 -2
BITMAP
0540
7FC0
A000
7A40
16C0
15C0
7F80
0900
0A00
ENDCHAR
STARTCHAR scedilla
ENCODING 351
SWIDTH 523 0
DWIDTH 5 0
BBX 5 7 0 -2
BITMAP
2A00
AA00
7E00
1B40
BF00
0800
1C00
ENDCHAR
STARTCHAR Scaron
ENCODING 352
SWIDTH 610 0
DWIDTH 6 0
BBX 5 8 0 0
BITMAP
1E00
0540
7FC0
A000
7A40
16C0
15C0
7F80
ENDCHAR
STARTCHAR scaron
ENCODING 353
SWIDTH 523 0
DWIDTH 5 0
BBX 5 6 0 0
BITMAP
1D00
2E00
AA00
7E00
1B40
BF00
ENDCHAR
STARTCHAR Tcommaaccent
ENCODING 354
SWIDTH 578 0
DWIDTH 5 0
BBX 5 9 0 -2
BITMAP
5540
FFC0
0D00
0D00
0D00
0D00
0D00
0400
0800
ENDCHAR
STARTCHAR tcommaaccent
ENCODING 355
SWIDTH 437 0
DWIDTH 4 0
BBX 4 9 0 -2
BITMAP
20
70
BA
B9
70
34
1E
14
14
ENDCHAR
STARTCHAR Tcaron
ENCODING 356
SWIDTH 578 0
DWIDTH 5 0
BBX 5 8 0 0
BITMAP
1D00
5540
FFC0
0D00
0D00
0D00
0D00
0D00
ENDCHAR
STARTCHAR tcaron
ENCODING 357
SWIDTH 570 0
DWIDTH 5 0
BBX 5 7 0 0
BITMAP
2040
70C0
BA40
B900
7000
3400
1E00
ENDCHAR
STARTCHAR Tbar
ENCODING 358
SWIDTH 578 0
DWIDTH 5 0
BBX 5 7 0 0
BITMAP
5540
FFC0
0D00
1D00
2F00
0D00
0D00
ENDCHAR
STARTCHAR tbar
ENCODING 359
SWIDTH 437 0
DWIDTH 4 0
BBX 4 7 0 0
BITMAP
20
70
BA
B9
FC
74
1E
ENDCHAR
STARTCHAR Utilde
ENCODING 360
SWIDTH 673 0
DWIDTH 6 0
BBX 6 8 0 0
BITMAP
1F40
1140
60A0
60A0
60A0
60A0
75D0
1F40
ENDCHAR
STARTCHAR utilde
ENCODING 361
SWIDTH 562 0
DWIDTH 5 0
BBX 5 6 0 0
BITMAP
2B00
6240
A280
A280
6680
2E80
ENDCHAR
STARTCHAR Umacron
ENCODING 362
SWIDTH 673 0
DWIDTH 6 0
BBX 6 8 0 0
BITMAP
0A00
1540
60A0
60A0
60A0
60A0
75D0
1F40
ENDCHAR
STARTCHAR umacron
ENCODING 363
SWIDTH 562 0
DWIDTH 5 0
BBX 5 6 0 0
BITMAP
1900
6640
A280
A280
6680
2E80
ENDCHAR
STARTCHAR Ubreve
ENCODING 364
SWIDTH 673 0
DWIDTH 6 0
BBX 6 8 0 0
BITMAP
0B00
1040
60A0
60A0
60A0
60A0
75D0
1F40
ENDCHAR
STARTCHAR ubreve
ENCODING 365
SWIDTH 562 0
DWIDTH 5 0
BBX 5 6 0 0
BITMAP
1D00
5140
A280
A280
6680
2E80
ENDCHAR
STARTCHAR Uring
ENCODING 366
SWIDTH 673 0
DWIDTH 6 0
BBX 6 9 0 0
BITMAP
0100
0A00
1540
60A0
60A0
60A0
60A0
75D0
1F40
ENDCHAR
STARTCHAR uring
ENCODING 367
SWIDTH 562 0
DWIDTH 5 0
BBX 5 7 0 0
BITMAP
0400
1900
5540
A280
A280
6680
2E80
ENDCHAR
STARTCHAR Uhungarumlaut
ENCODING 368
SWIDTH 673 0
DWIDTH 6 0
BBX 6 9 0 0
BITMAP
0540
0E80
1040
60A0
60A0
60A0
60A0
75D0
1F40
ENDCHAR
STARTCHAR uhungarumlaut
ENCODING 369
SWIDTH 562 0
DWIDTH 5 0
BBX 5 7 0 0
BITMAP
0500
2B40
5240
A280
A280
6680
2E80
ENDCHAR
STARTCHAR Uogonek
ENCODING 370
SWIDTH 673 0
DWIDTH 6 0
BBX 6 9 0 -2
BITMAP
1040
60A0
60A0
60A0
60A0
75D0
1F40
0900
0500
ENDCHAR
STARTCHAR uogonek
ENCODING 371
SWIDTH 562 0
DWIDTH 5 0
BBX 5 7 0 -2
BITMAP
5140
A280
A280
6680
2E80
0180
0180
ENDCHAR
STARTCHAR Wcircumflex
ENCODING 372
SWIDTH 819 0
DWIDTH 7 0
BBX 7 8 0 0
BITMAP
0740
1144
635C
635C
635C
635C
77A8
2EF4
ENDCHAR
STARTCHAR wcircumflex
ENCODING 373
SWIDTH 756 0
DWIDTH 7 0
BBX 7 6 0 0
BITMAP
0740
5624
A724
A724
A774
3EE0
ENDCHAR
STARTCHAR Ycircumflex
ENCODING 374
SWIDTH 620 0
DWIDTH 6 0
BBX 6 8 0 0
BITMAP
0E00
5140
A0D0
A0D0
B5C0
2F40
0D00
0D00
ENDCHAR
STARTCHAR ycircumflex
ENCODING 375
SWIDTH 562 0
DWIDTH 5 0
BBX 5 8 0 -2
BITMAP
1D00
6240
A280
A280
6680
2F80
1B40
1900
ENDCHAR
STARTCHAR Ydieresis
ENCODING 376
SWIDTH 620 0
DWIDTH 6 0
BBX 6 8 0 0
BITMAP
1600
5040
A0D0
A0D0
B5C0
2F40
0D00
0D00
ENDCHAR
STARTCHAR Zacute
ENCODING 377
SWIDTH 586 0
DWIDTH 5 0
BBX 5 8 0 0
BITMAP
0700
5940
BF80
0700
0E00
1C00
3940
BFC0
ENDCHAR
STARTCHAR zacute
ENCODING 378
SWIDTH 481 0
DWIDTH 4 0
BBX 4 7 0 0
BITMAP
0A
04
AA
6D
1C
39
BF
ENDCHAR
STARTCHAR Zdotaccent
ENCODING 379
SWIDTH 586 0
DWIDTH 5 0
BBX 5 8 0 0
BITMAP
0800
5540
BF80
0700
0E00
1C00
3940
BFC0
ENDCHAR
STARTCHAR zdotaccent
ENCODING 380
SWIDTH 481 0
DWIDTH 4 0
BBX 4 6 0 0
BITMAP
18
AA
6D
1C
39
BF
ENDCHAR
STARTCHAR Zcaron
ENCODING 381
SWIDTH 586 0
DWIDTH 5 0
BBX 5 8 0 0
BITMAP
1E00
5540
BF80
0700
0E00
1C00
3940
BFC0
ENDCHAR
STARTCHAR zcaron
ENCODING 382
SWIDTH 481 0
DWIDTH 4 0
BBX 4 6 0 0
BITMAP
2C
AE
6D
1C
39
BF
ENDCHAR
STARTCHAR AEacute
ENCODING 508
SWIDTH 988 0
DWIDTH 9 0
BBX 9 8 0 0
BITMAP
007400
056540
2FFF80
70A000
60B900
7AE500
7AE500
60BF80
ENDCHAR
STARTCHAR aeacute
ENCODING 509
SWIDTH 976 0
DWIDTH 9 0
BBX 9 7 0 0
BITMAP
007000
004000
2E6E00
B6FB40
91EA00
A2F900
2FAF40
ENDCHAR
STARTCHAR Oslashacute
ENCODING 510
SWIDTH 777 0
DWIDTH 7 0
BBX 7 8 0 0
BITMAP
0280
0650
2FF0
74F4
A268
AA28
7D74
3FD0
ENDCHAR
STARTCHAR oslashacute
ENCODING 511
SWIDTH 579 0
DWIDTH 5 0
BBX 5 7 0 0
BITMAP
0700
0400
2E80
BB80
AEC0
BA80
7F40
ENDCHAR
STARTCHAR dotlessj
ENCODING 567
SWIDTH 237 0
DWIDTH 2 0
BBX 4 7 -2 -2
BITMAP
05
0A
0A
0A
0A
1D
64
ENDCHAR
STARTCHAR circumflex
ENCODING 710
SWIDTH 267 0
DWIDTH 2 0
BBX 2 2 0 4
BITMAP
B0
50
ENDCHAR
STARTCHAR caron
ENCODING 711
SWIDTH 267 0
DWIDTH 2 0
BBX 2 1 0 5
BITMAP
B0
ENDCHAR
STARTCHAR breve
ENCODING 728
SWIDTH 220 0
DWIDTH 2 0
BBX 2 1 0 5
BITMAP
A0
ENDCHAR
STARTCHAR dotaccent
ENCODING 729
SWIDTH 125 0
DWIDTH 1 0
BBX 1 1 0 5
BITMAP
80
ENDCHAR
STARTCHAR ring
ENCODING 730
SWIDTH 192 0
DWIDTH 2 0
BBX 2 3 0 4
BITMAP
40
A0
40
ENDCHAR
STARTCHAR ogonek
ENCODING 731
SWIDTH 212 0
DWIDTH 2 0
BBX 2 2 0 -2
BITMAP
90
50
ENDCHAR
STARTCHAR tilde
ENCODING 732
SWIDTH 321 0
DWIDTH 3 0
BBX 3 2 0 4
BITMAP
E8
40
ENDCHAR
STARTCHAR hungarumlaut
ENCODING 733
SWIDTH 384 0
DWIDTH 3 0
BBX 4 2 0 5
BITMAP
14
AD
ENDCHAR
STARTCHAR uni0312
ENCODING 786
SWIDTH 192 0
DWIDTH 2 0
BBX 2 2 0 5
BITMAP
40
90
ENDCHAR
STARTCHAR uni0315
ENCODING 789
SWIDTH 132 0
DWIDTH 1 0
BBX 1 3 0 4
BITMAP
40
C0
40
ENDCHAR
STARTCHAR uni0326
ENCODING 806
SWIDTH 193 0
DWIDTH 2 0
BBX 2 2 0 -2
BITMAP
50
50
ENDCHAR
STARTCHAR pi
ENCODING 960
SWIDTH 555 0
DWIDTH 5 0
BBX 5 5 0 0
BITMAP
AA80
7B40
3700
3700
3700
ENDCHAR
STARTCHAR Wgrave
ENCODING 7808
SWIDTH 819 0
DWIDTH 7 0
BBX 7 8 0 0
BITMAP
0A00
1204
635C
635C
635C
635C
77A8
2EF4
ENDCHAR
STARTCHAR wgrave
ENCODING 7809
SWIDTH 756 0
DWIDTH 7 0
BBX 7 7 0 0
BITMAP
0D00
0500
5224
A724
A724
A774
3EE0
ENDCHAR
STARTCHAR Wacute
ENCODING 7810
SWIDTH 819 0
DWIDTH 7 0
BBX 7 8 0 0
BITMAP
01C0
1244
635C
635C
635C
635C
77A8
2EF4
ENDCHAR
STARTCHAR wacute
ENCODING 7811
SWIDTH 756 0
DWIDTH 7 0
BBX 7 7 0 0
BITMAP
01C0
0100
5224
A724
A724
A774
3EE0
ENDCHAR
STARTCHAR Wdieresis
ENCODING 7812
SWIDTH 819 0
DWIDTH 7 0
BBX 7 8 0 0
BITMAP
0980
1144
635C
635C
635C
635C
77A8
2EF4
ENDCHAR
STARTCHAR wdieresis
ENCODING 7813
SWIDTH 756 0
DWIDTH 7 0
BBX 7 6 0 0
BITMAP
0980
5624
A724
A724
A774
3EE0
ENDCHAR
STARTCHAR Ygrave
ENCODING 7922
SWIDTH 620 0
DWIDTH 6 0
BBX 6 8 0 0
BITMAP
2400
5440
A0D0
A0D0
B5C0
2F40
0D00
0D00
ENDCHAR
STARTCHAR ygrave
ENCODING 7923
SWIDTH 562 0
DWIDTH 5 0
BBX 5 9 0 -2
BITMAP
3400
1400
5140
A280
A280
6680
2F80
1B40
1900
ENDCHAR
STARTCHAR endash
ENCODING 8211
SWIDTH 418 0
DWIDTH 4 0
BBX 4 2 0 2
BITMAP
69
54
ENDCHAR
STARTCHAR emdash
ENCODING 8212
SWIDTH 719 0
DWIDTH 6 0
BBX 6 2 0 2
BITMAP
6AA0
5550
ENDCHAR
STARTCHAR quoteleft
ENCODING 8216
SWIDTH 246 0
DWIDTH 2 0
BBX 2 2 0 4
BITMAP
50
A0
ENDCHAR
STARTCHAR quoteright
ENCODING 8217
SWIDTH 245 0
DWIDTH 2 0
BBX 2 2 0 4
BITMAP
A0
60
ENDCHAR
STARTCHAR quotesinglbase
ENCODING 8218
SWIDTH 264 0
DWIDTH 2 0
BBX 2 2 0 -1
BITMAP
70
20
ENDCHAR
STARTCHAR quotedblleft
ENCODING 8220
SWIDTH 445 0
DWIDTH 4 0
BBX 4 2 0 4
BITMAP
59
AA
ENDCHAR
STARTCHAR quotedblright
ENCODING 8221
SWIDTH 444 0
DWIDTH 4 0
BBX 4 2 0 4
BITMAP
AA
65
ENDCHAR
STARTCHAR quotedblbase
ENCODING 8222
SWIDTH 463 0
DWIDTH 4 0
BBX 4 2 0 -1
BITMAP
7A
26
ENDCHAR
STARTCHAR dagger
ENCODING 8224
SWIDTH 434 0
DWIDTH 4 0
BBX 4 8 0 -1
BITMAP
28
79
7D
28
28
28
28
28
ENDCHAR
STARTCHAR daggerdbl
ENCODING 8225
SWIDTH 452 0
DWIDTH 4 0
BBX 4 8 0 -1
BITMAP
28
6D
7D
28
28
BE
28
28
ENDCHAR
STARTCHAR bullet
ENCODING 8226
SWIDTH 354 0
DWIDTH 3 0
BBX 3 2 0 2
BITMAP
74
24
ENDCHAR
STARTCHAR ellipsis
ENCODING 8230
SWIDTH 789 0
DWIDTH 7 0
BBX 7 2 0 -1
BITMAP
7368
1100
ENDCHAR
STARTCHAR perthousand
ENCODING 8240
SWIDTH 998 0
DWIDTH 9 0
BBX 9 7 0 0
BITMAP
104000
A88000
9A4000
6A0000
0AEB40
1A6980
21EB40
ENDCHAR
STARTCHAR guilsinglleft
ENCODING 8249
SWIDTH 403 0
DWIDTH 4 0
BBX 3 5 0 0
BITMAP
04
2C
70
38
08
ENDCHAR
STARTCHAR guilsinglright
ENCODING 8250
SWIDTH 402 0
DWIDTH 4 0
BBX 3 5 0 0
BITMAP
10
74
1C
38
60
ENDCHAR
STARTCHAR fraction
ENCODING 8260
SWIDTH 477 0
DWIDTH 4 0
BBX 4 7 0 0
BITMAP
01
02
09
08
24
60
90
ENDCHAR
STARTCHAR Euro
ENCODING 8364
SWIDTH 806 0
DWIDTH 7 0
BBX 7 7 0 0
BITMAP
0050
07F8
1E40
7E40
7F00
1E54
07F4
ENDCHAR
STARTCHAR trademark
ENCODING 8482
SWIDTH 606 0
DWIDTH 5 0
BBX 4 3 1 4
BITMAP
45
9A
55
ENDCHAR
STARTCHAR partialdiff
ENCODING 8706
SWIDTH 609 0
DWIDTH 5 0
BBX 5 7 0 0
BITMAP
0A00
0700
1B80
76C0
A0C0
76C0
2F40
ENDCHAR
STARTCHAR product
ENCODING 8719
SWIDTH 632 0
DWIDTH 6 0
BBX 6 7 0 0
BITMAP
5540
BFD0
3680
3680
3680
3680
3680
ENDCHAR
STARTCHAR minus
ENCODING 8722
SWIDTH 543 0
DWIDTH 5 0
BBX 5 2 0 2
BITMAP
6A40
1500
ENDCHAR
STARTCHAR infinity
ENCODING 8734
SWIDTH 771 0
DWIDTH 7 0
BBX 7 4 0 1
BITMAP
2EE0
A764
A764
2EE0
ENDCHAR
STARTCHAR approxequal
ENCODING 8776
SWIDTH 476 0
DWIDTH 4 0
BBX 4 4 0 1
BITMAP
7A
59
7A
55
ENDCHAR
STARTCHAR notequal
ENCODING 8800
SWIDTH 512 0
DWIDTH 5 0
BBX 4 6 0 0
BITMAP
06
6F
6E
7F
75
20
ENDCHAR
STARTCHAR fi
ENCODING 64257
SWIDTH 650 0
DWIDTH 6 0
BBX 6 7 0 0
BITMAP
1E90
3490
BA90
75D0
7090
7090
7090
ENDCHAR
STARTCHAR fl
ENCODING 64258
SWIDTH 631 0
DWIDTH 6 0
BBX 6 7 0 0
BITMAP
1FD0
35D0
B9D0
75D0
70D0
70D0
70D0
ENDCHAR
STARTCHAR .notdef
ENCODING -1
SWIDTH 279 0
DWIDTH 3 0
BBX 1 1 0 0
BITMAP
00
ENDCHAR
STARTCHAR .null
ENCODING -1
SWIDTH 0 0
DWIDTH 0 0
BBX 1 1 0 0
BITMAP
00
ENDCHAR
STARTCHAR nonmarkingreturn
ENCODING -1
SWIDTH 279 0
DWIDTH 3 0
BBX 1 1 0 0
BITMAP
00
ENDCHAR
ENDFONT
